<?xml version="1.0" encoding="UTF-8" standalone="no"?><!-- Generator: Gravit.io --><svg xmlns="http://www.w3.org/2000/svg" xmlns:xlink="http://www.w3.org/1999/xlink" style="isolation:isolate" viewBox="0 0 360 360" width="360pt" height="360pt"><defs><clipPath id="_clipPath_EOKWI3c7mDyIGAloCKTJsdmMtgyraElT"><rect width="360" height="360"/></clipPath></defs><g clip-path="url(#_clipPath_EOKWI3c7mDyIGAloCKTJsdmMtgyraElT)"><mask id="_mask_xeSsOAE2Dgd6XwFdqqL0ldEcuPKbejUu"><circle vector-effect="non-scaling-stroke" cx="180" cy="180" r="180" fill="white" fill-opacity="0.62" stroke="none"/></mask><circle vector-effect="non-scaling-stroke" cx="180" cy="180" r="180" fill="rgb(255,0,0)" fill-opacity="0.62"/><circle vector-effect="non-scaling-stroke" cx="180" cy="180" r="180" fill="rgb(255,0,0)" fill-opacity="0.62" mask="url(#_mask_xeSsOAE2Dgd6XwFdqqL0ldEcuPKbejUu)" stroke-width="16" stroke="rgb(0,0,0)" stroke-opacity="0.35" stroke-linejoin="miter" stroke-linecap="square" stroke-miterlimit="3"/><path d="M 180 32 L 180 32 C 189.659 32 197.5 39.841 197.5 49.5 L 197.5 214.5 C 197.5 224.159 189.659 232 180 232 L 180 232 C 170.341 232 162.5 224.159 162.5 214.5 L 162.5 49.5 C 162.5 39.841 170.341 32 180 32 Z" style="stroke:none;fill:#FF0000;stroke-miterlimit:10;opacity:0.45;"/><path d="M 180 32 L 180 32 C 189.659 32 197.5 39.841 197.5 49.5 L 197.5 214.5 C 197.5 224.159 189.659 232 180 232 L 180 232 C 170.341 232 162.5 224.159 162.5 214.5 L 162.5 49.5 C 162.5 39.841 170.341 32 180 32 Z" style="fill:none;stroke:#000000;stroke-width:10;stroke-linecap:square;stroke-miterlimit:2;"/><mask id="_mask_DZGZo8dafB2CDIkbAm5lKx7p1p121nxK"><circle vector-effect="non-scaling-stroke" cx="180" cy="284.5" r="17.5" fill="white" fill-opacity="0.45" stroke="none"/></mask><circle vector-effect="non-scaling-stroke" cx="180" cy="284.5" r="17.5" fill="rgb(255,0,0)" fill-opacity="0.45"/><circle vector-effect="non-scaling-stroke" cx="180" cy="284.5" r="17.5" fill="rgb(255,0,0)" fill-opacity="0.45" mask="url(#_mask_DZGZo8dafB2CDIkbAm5lKx7p1p121nxK)" stroke-width="10" stroke="rgb(0,0,0)" stroke-opacity="0.39" stroke-linejoin="miter" stroke-linecap="butt" stroke-miterlimit="3"/></g></svg>